<svg xmlns="http://www.w3.org/2000/svg" width="30%" viewBox="0 0 559 245" version="1.1"><path d="M 127.776 49.733 C 130.128 49.945, 133.728 49.942, 135.776 49.727 C 137.824 49.512, 135.900 49.339, 131.500 49.343 C 127.100 49.346, 125.424 49.522, 127.776 49.733 M 397.500 49.713 C 394.437 50.450, 393.496 51.819, 396.439 51.256 C 397.864 50.984, 399.274 50.365, 399.574 49.881 C 399.873 49.396, 399.979 49.052, 399.809 49.116 C 399.639 49.180, 398.600 49.448, 397.500 49.713 M 404.776 49.733 C 407.128 49.945, 410.728 49.942, 412.776 49.727 C 414.824 49.512, 412.900 49.339, 408.500 49.343 C 404.100 49.346, 402.424 49.522, 404.776 49.733 M 145 50.828 C 145 51.299, 146.688 52.234, 148.750 52.907 C 150.813 53.579, 153.175 54.352, 154 54.623 C 156.465 55.433, 152.316 53.030, 148.491 51.432 C 146.571 50.629, 145 50.358, 145 50.828 M 187.458 51.250 C 187.194 51.938, 187.096 73.200, 187.239 98.500 L 187.500 144.500 198.500 144.500 L 209.500 144.500 210 128 L 210.500 111.500 227 110.962 L 243.500 110.425 226.250 110.212 L 209 110 209 127 L 209 144 198.500 144 L 188 144 188 97.750 L 188 51.500 220.500 51.500 L 253 51.500 253 61.230 L 253 70.961 231.250 71.230 L 209.500 71.500 209.500 81 L 209.500 90.500 226.500 90.550 L 243.500 90.601 227 90.050 L 210.500 89.500 210.500 81 L 210.500 72.500 232.500 72 L 254.500 71.500 254.789 62.149 C 254.975 56.114, 254.666 52.302, 253.916 51.399 C 252.299 49.451, 188.203 49.307, 187.458 51.250 M 261 51 C 261 51.646, 272.333 52, 293 52 C 313.667 52, 325 51.646, 325 51 C 325 50.354, 313.667 50, 293 50 C 272.333 50, 261 50.354, 261 51 M 332.471 51.216 C 332.200 51.922, 332.096 73.200, 332.239 98.500 L 332.500 144.500 343.500 144.500 L 354.500 144.500 354.500 97.500 L 354.500 50.500 343.732 50.216 C 335.676 50.004, 332.839 50.255, 332.471 51.216 M 422 50.878 C 422 51.376, 423.083 52.055, 424.407 52.387 C 425.731 52.720, 427.644 53.290, 428.657 53.655 C 431.888 54.818, 429.542 53.125, 425.699 51.519 C 423.664 50.669, 422 50.380, 422 50.878 M 460.516 51.025 C 460.929 51.694, 472.499 52.022, 493.825 51.970 L 526.500 51.890 526.786 61.426 L 527.072 70.962 504.286 71.231 L 481.500 71.500 481.500 79.500 L 481.500 87.500 499.250 87.773 L 517 88.046 517 97 L 517 105.954 499.250 106.227 L 481.500 106.500 481.500 115 L 481.500 123.500 504.500 123.539 L 527.500 123.577 505 123.039 L 482.500 122.500 482.500 115 L 482.500 107.500 500 107 L 517.500 106.500 517.500 97 L 517.500 87.500 500 87 L 482.500 86.500 482.500 79.500 L 482.500 72.500 505 72 L 527.500 71.500 527.788 61.583 C 527.999 54.322, 527.731 51.446, 526.788 50.848 C 524.823 49.601, 459.743 49.775, 460.516 51.025 M 333 97.500 L 333 144 343.500 144 L 354 144 354 97.500 L 354 51 343.500 51 L 333 51 333 97.500 M 386.750 53.572 C 383.129 55.537, 383.250 56.157, 387 54.850 C 388.650 54.275, 390 53.398, 390 52.902 C 390 51.783, 390.076 51.768, 386.750 53.572 M 165.500 63 C 167.648 65.200, 169.631 67, 169.906 67 C 170.181 67, 168.648 65.200, 166.500 63 C 164.352 60.800, 162.369 59, 162.094 59 C 161.819 59, 163.352 60.800, 165.500 63 M 443.039 63.500 C 445.496 66.250, 448.302 69.625, 449.275 71 L 451.045 73.500 449.603 70.500 C 448.809 68.850, 446.003 65.475, 443.367 63 L 438.573 58.500 443.039 63.500 M 95.212 64.386 C 91.469 68.446, 87.293 75, 88.449 75 C 88.724 75, 89.673 73.599, 90.559 71.886 C 91.445 70.173, 93.989 66.798, 96.212 64.386 C 98.436 61.974, 100.030 60, 99.755 60 C 99.480 60, 97.436 61.974, 95.212 64.386 M 369.807 67.750 C 368.045 69.802, 366.724 72, 367.253 72 C 367.457 72, 368.622 70.650, 369.842 69 C 372.252 65.740, 372.230 64.929, 369.807 67.750 M 56 70.376 C 56 70.610, 57.602 71.748, 59.560 72.903 C 61.518 74.058, 62.840 74.549, 62.497 73.995 C 61.827 72.911, 56 69.665, 56 70.376 M 128.768 71.725 C 130.565 71.947, 133.265 71.943, 134.768 71.715 C 136.271 71.486, 134.800 71.304, 131.500 71.310 C 128.200 71.315, 126.971 71.502, 128.768 71.725 M 281.998 71.750 C 281.997 72.162, 288.410 72.383, 296.248 72.241 C 322.981 71.755, 325.523 71.403, 303.750 71.201 C 291.788 71.091, 281.999 71.338, 281.998 71.750 M 405.768 71.725 C 407.565 71.947, 410.265 71.943, 411.768 71.715 C 413.271 71.486, 411.800 71.304, 408.500 71.310 C 405.200 71.315, 403.971 71.502, 405.768 71.725 M 37.209 74.665 C 34.849 76.087, 33.116 77.449, 33.357 77.691 C 33.599 77.932, 35.980 76.759, 38.648 75.084 C 44.531 71.390, 43.257 71.019, 37.209 74.665 M 147.637 77.250 C 149.676 79.037, 152.630 83.200, 154.201 86.500 C 156.759 91.874, 157.124 91.219, 154.894 85.258 C 153.924 82.665, 146.184 74, 144.838 74 C 144.339 74, 145.599 75.463, 147.637 77.250 M 390.377 78.467 C 386.349 82.671, 382.842 90.594, 383.089 94.932 C 383.139 95.794, 383.741 94.475, 384.428 92 C 386.335 85.126, 388.790 80.820, 392.827 77.265 C 394.847 75.486, 396.085 74.023, 395.579 74.015 C 395.072 74.007, 392.731 76.010, 390.377 78.467 M 64 75.480 C 64 75.743, 65.800 76.878, 68 78 C 72.958 80.530, 73.250 79.935, 68.443 77.099 C 64.779 74.937, 64 74.653, 64 75.480 M 113.308 78.250 C 109.598 82.160, 107.445 86.285, 106.653 91 C 106.105 94.269, 106.156 94.227, 107.436 90.365 C 109.393 84.459, 110.824 81.940, 114.316 78.250 C 116.008 76.463, 117.167 75, 116.892 75 C 116.617 75, 115.004 76.463, 113.308 78.250 M 425.500 77.469 C 427.150 78.821, 428.872 79.944, 429.327 79.964 C 429.781 79.984, 428.816 78.875, 427.182 77.500 C 425.548 76.125, 423.826 75.002, 423.356 75.005 C 422.885 75.008, 423.850 76.117, 425.500 77.469 M 436.500 77 C 434.572 77.829, 434.579 77.862, 436.691 77.930 C 437.896 77.968, 439.160 77.550, 439.500 77 C 440.231 75.817, 439.252 75.817, 436.500 77 M 176.565 80.502 C 177.565 84.620, 178.855 88, 179.427 88 C 180.036 88, 177.354 79.021, 176.487 78.154 C 176.130 77.796, 176.165 78.853, 176.565 80.502 M 363 79.257 C 363 79.398, 362.558 81.055, 362.017 82.939 C 361.468 84.854, 361.437 85.954, 361.947 85.433 C 363.077 84.276, 364.440 79, 363.608 79 C 363.274 79, 363 79.115, 363 79.257 M 84.182 85.182 C 83.588 87.521, 83.275 89.608, 83.485 89.819 C 83.696 90.029, 84.378 88.311, 85 86 C 85.622 83.689, 85.936 81.602, 85.696 81.363 C 85.457 81.124, 84.776 82.842, 84.182 85.182 M 42.250 83.989 C 40.462 85.079, 39 86.187, 39 86.452 C 39 86.716, 40.575 86.003, 42.500 84.867 C 44.425 83.732, 46 82.622, 46 82.401 C 46 81.762, 45.684 81.895, 42.250 83.989 M 57.500 83.522 C 58.600 84.413, 59.388 85.559, 59.250 86.071 C 58.921 87.294, 60.714 87.272, 61.474 86.043 C 61.799 85.516, 60.588 84.369, 58.783 83.494 C 55.751 82.025, 55.653 82.027, 57.500 83.522 M 71.742 90.914 C 67.382 93.709, 67.173 94.347, 71.250 92.410 C 73.313 91.431, 75 90.263, 75 89.815 C 75 88.803, 75.075 88.778, 71.742 90.914 M 179.318 97.500 C 179.304 102.844, 179.612 105.688, 180.077 104.500 C 181.030 102.065, 181.018 95.574, 180.053 91.500 C 179.599 89.583, 179.334 91.749, 179.318 97.500 M 281.998 90.250 C 281.999 90.662, 289.650 91, 299 91 L 316 91 316 100.500 L 316 110 299 110 C 289.650 110, 281.999 110.338, 281.998 110.750 C 281.997 111.162, 289.760 111.275, 299.248 111 L 316.500 110.500 316.500 100.500 L 316.500 90.500 299.248 90 C 289.760 89.725, 281.997 89.838, 281.998 90.250 M 83.300 96 C 83.300 99.025, 83.487 100.263, 83.716 98.750 C 83.945 97.237, 83.945 94.763, 83.716 93.250 C 83.487 91.737, 83.300 92.975, 83.300 96 M 46.200 94.200 C 44.274 96.126, 44.774 100.378, 47.097 101.829 C 48.251 102.549, 49.414 102.919, 49.683 102.650 C 49.952 102.382, 49.233 101.660, 48.086 101.046 C 45.787 99.816, 45.306 96.094, 47.200 94.200 C 47.860 93.540, 48.175 93, 47.900 93 C 47.625 93, 46.860 93.540, 46.200 94.200 M 156.070 97.750 C 156.032 100.088, 156.173 102, 156.383 102 C 157.232 102, 157.605 97.238, 156.897 95.431 C 156.362 94.065, 156.120 94.743, 156.070 97.750 M 383.506 101.452 C 383.991 106.154, 387.710 115.623, 388.688 114.645 C 388.941 114.393, 388.430 112.798, 387.553 111.102 C 386.675 109.405, 385.291 105.426, 384.476 102.259 L 382.995 96.500 383.506 101.452 M 106.510 102.855 C 107.469 110.486, 113.038 118.522, 119.500 121.600 C 121.150 122.385, 121.643 122.460, 120.596 121.764 C 112.919 116.668, 110.007 112.676, 107.466 103.770 C 105.973 98.538, 105.966 98.531, 106.510 102.855 M 154.988 106.683 C 154.322 108.782, 153.074 111.625, 152.214 113 C 150.778 115.297, 150.783 115.392, 152.273 114.171 C 154.089 112.684, 157.590 104.257, 156.744 103.411 C 156.444 103.111, 155.654 104.584, 154.988 106.683 M 360.070 103.691 C 360.109 104.136, 360.527 105.400, 361 106.500 C 361.829 108.428, 361.862 108.421, 361.930 106.309 C 361.968 105.104, 361.550 103.840, 361 103.500 C 360.450 103.160, 360.032 103.246, 360.070 103.691 M 83.115 105 C 83.161 105.825, 83.560 107.625, 84 109 L 84.801 111.500 84.885 109 C 84.931 107.625, 84.533 105.825, 84 105 C 83.138 103.667, 83.040 103.667, 83.115 105 M 178.718 107.683 C 178.452 108.133, 177.959 110.075, 177.620 112 L 177.006 115.500 178.507 111.587 C 179.843 108.103, 179.982 105.545, 178.718 107.683 M 40 109.343 C 40 110.084, 49.110 115.224, 49.584 114.750 C 49.818 114.515, 47.758 113.097, 45.005 111.599 C 42.252 110.101, 40 109.086, 40 109.343 M 361.979 111.926 C 362.440 113.536, 363.331 115.673, 363.957 116.676 C 364.939 118.249, 365.002 118.156, 364.414 116 C 363.363 112.142, 362.097 109, 361.595 109 C 361.344 109, 361.517 110.317, 361.979 111.926 M 26.861 113.944 C 28.159 115.075, 29.734 115.993, 30.361 115.985 C 31.554 115.969, 29.892 114.645, 26.500 112.910 C 24.928 112.106, 25.005 112.327, 26.861 113.944 M 71.742 114.914 C 67.382 117.709, 67.173 118.347, 71.250 116.410 C 73.313 115.431, 75 114.263, 75 113.815 C 75 112.803, 75.075 112.778, 71.742 114.914 M 428.584 114.641 C 428.113 115.869, 428.275 116.029, 429.227 115.276 C 429.927 114.722, 431.175 114.019, 432 113.713 C 433.024 113.334, 432.820 113.133, 431.357 113.079 C 430.178 113.036, 428.931 113.739, 428.584 114.641 M 32.503 117.005 C 33.173 118.089, 39 121.335, 39 120.624 C 39 120.390, 37.398 119.252, 35.440 118.097 C 33.482 116.942, 32.160 116.451, 32.503 117.005 M 174.733 119.263 C 173.838 121.043, 172.140 124.075, 170.958 126 C 169.776 127.925, 169.561 128.600, 170.480 127.500 C 172.998 124.487, 177.304 116.971, 176.801 116.467 C 176.557 116.224, 175.627 117.482, 174.733 119.263 M 423.250 119.115 C 419.841 121.298, 418.738 122.764, 421.750 121.108 C 424.044 119.847, 427.639 117.068, 427 117.049 C 426.725 117.040, 425.038 117.970, 423.250 119.115 M 45.500 125 C 47.150 126.093, 48.950 126.987, 49.500 126.987 C 50.050 126.987, 49.150 126.093, 47.500 125 C 45.850 123.907, 44.050 123.013, 43.500 123.013 C 42.950 123.013, 43.850 123.907, 45.500 125 M 128.624 124.200 C 128.896 124.640, 130.190 125, 131.500 125 C 132.810 125, 134.104 124.640, 134.376 124.200 C 134.648 123.760, 133.354 123.400, 131.500 123.400 C 129.646 123.400, 128.352 123.760, 128.624 124.200 M 367.553 124 C 369.114 127.094, 375.216 134.043, 377.318 135.121 C 378.686 135.823, 378.183 134.984, 375.967 132.870 C 374.024 131.017, 371.165 127.925, 369.615 126 C 368.065 124.075, 367.137 123.175, 367.553 124 M 527.976 134 L 527.500 143.500 493.500 144.020 L 459.500 144.540 493.781 144.770 C 521.534 144.956, 528.160 144.747, 528.573 143.671 C 528.853 142.940, 528.941 138.327, 528.767 133.421 L 528.452 124.500 527.976 134 M 441.289 133.025 C 438.973 135.211, 437.419 137, 437.836 137 C 438.253 137, 440.352 135.200, 442.500 133 C 447.525 127.854, 446.751 127.870, 441.289 133.025 M 163.583 133.542 C 161.429 135.444, 160.103 137, 160.637 137 C 161.171 137, 163.134 135.425, 165 133.500 C 169.310 129.053, 168.644 129.073, 163.583 133.542 M 103 137.459 C 103 137.734, 104.800 138.878, 107 140 C 109.200 141.122, 111 141.816, 111 141.541 C 111 141.266, 109.200 140.122, 107 139 C 104.800 137.878, 103 137.184, 103 137.459 M 154.662 139.618 C 153.100 140.464, 152.069 141.402, 152.370 141.703 C 152.670 142.004, 154.398 141.301, 156.208 140.142 C 160.002 137.712, 158.879 137.333, 154.662 139.618 M 386 141 C 387.925 142.054, 389.950 142.916, 390.500 142.916 C 391.050 142.916, 389.925 142.054, 388 141 C 386.075 139.946, 384.050 139.084, 383.500 139.084 C 382.950 139.084, 384.075 139.946, 386 141 M 265.750 144.737 C 268.637 144.939, 273.363 144.939, 276.250 144.737 C 279.137 144.535, 276.775 144.370, 271 144.370 C 265.225 144.370, 262.863 144.535, 265.750 144.737" stroke="none" fill="#6a6a6a" fill-rule="evenodd"/><path d="M 122 50.367 C 122 50.843, 121.100 50.998, 120 50.710 C 118.900 50.423, 118 50.581, 118 51.062 C 118 51.543, 117.325 51.678, 116.500 51.362 C 115.675 51.045, 115 51.284, 115 51.893 C 115 52.502, 114.662 52.931, 114.250 52.846 C 113.838 52.761, 111.815 53.441, 109.755 54.357 C 107.695 55.273, 105.758 55.998, 105.451 55.968 C 105.143 55.937, 104.031 56.944, 102.979 58.206 C 101.927 59.468, 101.052 60.173, 101.033 59.772 C 100.971 58.416, 93.271 67.472, 90.211 72.500 C 84.618 81.691, 82.415 96.542, 84.777 109.128 C 85.759 114.361, 89.967 123.489, 93.058 127.094 C 99.794 134.949, 101.240 136.105, 109.780 140.456 C 124.238 147.822, 138.531 147.908, 152.952 140.717 C 156.501 138.948, 160.113 136.825, 160.979 136 C 161.845 135.175, 163.938 133.347, 165.630 131.938 C 169.750 128.508, 176.682 116.841, 177.509 111.948 C 177.875 109.782, 178.472 107.826, 178.837 107.601 C 179.626 107.114, 179.550 88.703, 178.754 87.401 C 178.451 86.906, 177.667 84.475, 177.012 82 C 173.870 70.128, 162.733 57.878, 151.383 53.807 C 147.872 52.548, 145 51.218, 145 50.853 C 145 50.487, 144.100 50.423, 143 50.710 C 141.900 50.998, 141 50.843, 141 50.367 C 141 49.890, 136.725 49.500, 131.500 49.500 C 126.275 49.500, 122 49.890, 122 50.367 M 399.202 50.188 C 398.816 50.567, 397.150 51.092, 395.500 51.356 C 393.850 51.620, 392.275 51.926, 392 52.036 C 391.725 52.147, 391.163 52.184, 390.750 52.118 C 390.337 52.053, 390 52.415, 390 52.922 C 390 53.430, 388.451 54.356, 386.557 54.981 C 378.099 57.773, 366.240 71.188, 363.854 80.665 C 363.249 83.068, 362.402 85.252, 361.971 85.518 C 361.540 85.784, 361.410 86.851, 361.681 87.888 C 361.952 88.926, 361.685 90.077, 361.087 90.446 C 359.687 91.311, 359.663 102.674, 361.059 103.536 C 361.642 103.896, 361.993 105.161, 361.840 106.346 C 361.687 107.530, 361.825 108.950, 362.148 109.500 C 362.470 110.050, 363.512 112.885, 364.464 115.801 C 365.416 118.716, 367.788 123.216, 369.737 125.801 C 373.542 130.849, 379.751 137, 381.042 137 C 381.477 137, 381.983 137.338, 382.167 137.750 C 382.678 138.901, 393.946 143.807, 399 145.080 C 404.532 146.474, 416.535 145.682, 424 143.432 C 427.025 142.520, 429.511 141.937, 429.523 142.137 C 429.536 142.337, 430.634 141.488, 431.962 140.250 C 433.290 139.012, 434.769 138, 435.247 138 C 436.014 138, 443.351 131.601, 446.387 128.285 C 449.100 125.322, 452 120.589, 452 119.125 C 452 118.330, 446.563 116.709, 443.321 116.537 C 442.672 116.503, 441.840 116.174, 441.473 115.806 C 441.105 115.439, 440.219 115.362, 439.503 115.637 C 438.788 115.912, 437.917 115.675, 437.569 115.112 C 437.221 114.548, 436.275 114.341, 435.468 114.651 C 434.661 114.960, 434 114.758, 434 114.201 C 434 112.440, 430.485 114.018, 426.490 117.572 C 422.903 120.763, 421.656 121.419, 419.750 121.118 C 419.337 121.053, 419 121.498, 419 122.107 C 419 122.716, 418.369 122.972, 417.598 122.676 C 416.827 122.380, 415.913 122.421, 415.567 122.767 C 414.540 123.793, 402 123.762, 402 122.732 C 402 122.212, 401.352 122.035, 400.560 122.339 C 398.795 123.016, 392.481 118.914, 388.725 114.650 C 383.209 108.389, 381.575 94.739, 385.280 85.872 C 391.751 70.386, 413.109 66.289, 427.402 77.791 C 429.512 79.490, 430.508 79.797, 431.051 78.918 C 431.462 78.253, 432.489 77.974, 433.334 78.298 C 434.179 78.622, 435.019 78.444, 435.200 77.901 C 435.381 77.358, 436.872 76.739, 438.514 76.526 C 440.156 76.312, 441.725 76.038, 442 75.917 C 442.275 75.795, 442.950 75.591, 443.500 75.463 C 444.050 75.335, 444.837 75.123, 445.250 74.990 C 446.777 74.501, 448.040 74.247, 449.548 74.125 C 450.757 74.027, 450.454 73.068, 448.166 69.750 C 445.413 65.756, 436.622 56.988, 434.475 56.095 C 433.939 55.872, 432.125 55.115, 430.445 54.412 C 428.764 53.710, 426.177 52.831, 424.695 52.459 C 423.213 52.088, 422 51.355, 422 50.833 C 422 50.310, 421.550 50.160, 421 50.500 C 420.450 50.840, 419.489 50.802, 418.865 50.417 C 417.378 49.497, 400.112 49.297, 399.202 50.188 M 188 97.750 L 188 144 198.500 144 L 209 144 209 127 L 209 110 226.500 110 L 244 110 244 100.524 L 244 91.047 226.750 90.774 L 209.500 90.500 209.500 81 L 209.500 71.500 231.250 71.230 L 253 70.961 253 61.230 L 253 51.500 220.500 51.500 L 188 51.500 188 97.750 M 259.429 53.500 C 259.162 54.600, 259.070 75.300, 259.222 99.500 L 259.500 143.500 270.750 143.783 L 282 144.066 282 127.033 L 282 110 299 110 L 316 110 316 100.500 L 316 91 299 91 L 282 91 282 80.966 L 282 70.931 304.250 71.039 L 326.500 71.147 326.500 61.546 L 326.500 51.945 293.206 51.723 C 260.647 51.505, 259.902 51.544, 259.429 53.500 M 333 97.500 L 333 144 343.500 144 L 354 144 354 97.500 L 354 51 343.500 51 L 333 51 333 97.500 M 459 97.763 L 459 144.026 493.250 143.763 L 527.500 143.500 527.786 133.769 L 528.072 124.037 504.786 123.769 L 481.500 123.500 481.500 115 L 481.500 106.500 499.250 106.227 L 517 105.954 517 97 L 517 88.046 499.250 87.773 L 481.500 87.500 481.500 79.500 L 481.500 71.500 504.286 71.231 L 527.072 70.962 526.786 61.463 L 526.500 51.964 492.750 51.732 L 459 51.500 459 97.763 M 46.750 70.115 C 45.237 71.244, 44 71.887, 44 71.544 C 44 71.202, 43.132 71.727, 42.072 72.711 C 41.011 73.695, 36.736 76.272, 32.572 78.439 L 25 82.377 25 97.132 L 25 111.887 28 113.659 C 29.650 114.634, 31 115.859, 31 116.382 C 31 116.905, 31.279 117.054, 31.620 116.713 C 31.962 116.372, 34.585 117.592, 37.450 119.425 C 40.315 121.257, 43.556 123.042, 44.653 123.390 C 45.750 123.738, 47.674 124.980, 48.930 126.149 C 50.794 127.886, 51.373 128.021, 52.091 126.888 C 52.574 126.124, 52.990 125.950, 53.015 126.500 C 53.040 127.050, 53.519 126.712, 54.080 125.750 C 54.641 124.787, 55.571 124, 56.148 124 C 56.724 124, 61.089 121.592, 65.848 118.648 C 70.607 115.704, 74.950 113.342, 75.500 113.398 C 76.050 113.454, 76.634 110.688, 76.798 107.250 C 76.967 103.698, 76.679 101, 76.131 101 C 75.601 101, 75.017 101.341, 74.833 101.758 C 74.423 102.692, 60.070 111, 58.868 111 C 58.390 111, 58 111.525, 58 112.167 C 58 112.808, 57.721 113.055, 57.381 112.714 C 57.040 112.374, 56.108 112.749, 55.310 113.548 C 54.511 114.346, 52.702 115, 51.289 115 C 48.842 115, 39.178 109.796, 37.888 107.784 C 37.552 107.259, 36.939 106.868, 36.527 106.915 C 36.114 106.963, 35.746 102.696, 35.708 97.433 C 35.645 88.806, 35.840 87.748, 37.684 86.682 C 43.614 83.254, 47.595 81.212, 48.388 81.193 C 48.877 81.181, 49.664 80.570, 50.138 79.835 C 50.857 78.722, 51.143 78.722, 51.862 79.835 C 52.336 80.570, 52.898 81.066, 53.112 80.938 C 53.325 80.809, 55.428 81.688, 57.785 82.890 C 61.821 84.949, 62.647 87, 59.441 87 C 58.648 87, 58 87.477, 58 88.059 C 58 88.641, 57.550 88.840, 57 88.500 C 56.450 88.160, 56 88.328, 56 88.874 C 56 89.419, 54.987 90.180, 53.750 90.564 C 49.830 91.781, 46 95.062, 46 97.203 C 46 98.340, 47.195 100.378, 48.656 101.732 C 50.984 103.890, 51.423 103.996, 52.206 102.597 C 52.697 101.719, 53.579 101, 54.164 101 C 54.750 101, 59.565 98.381, 64.864 95.179 C 70.164 91.978, 74.950 89.390, 75.500 89.429 C 76.050 89.468, 76.633 87.919, 76.796 85.987 C 77.084 82.574, 76.907 82.384, 70.546 79.247 C 66.946 77.471, 64 75.489, 64 74.843 C 64 74.196, 63.721 73.946, 63.380 74.287 C 63.038 74.628, 60.330 73.353, 57.360 71.454 C 51.100 67.449, 50.435 67.365, 46.750 70.115 M 121.594 73.009 C 115.765 75.286, 111.581 79.027, 108.743 84.500 C 105.728 90.313, 105.721 104.809, 108.730 110.568 C 111.709 116.270, 119.442 123.125, 121.346 121.750 C 121.537 121.612, 122.431 122.113, 123.334 122.862 C 124.236 123.611, 125.641 123.968, 126.455 123.656 C 127.270 123.343, 128.202 123.518, 128.527 124.044 C 129.294 125.284, 133.706 125.284, 134.473 124.044 C 134.798 123.518, 135.730 123.343, 136.545 123.656 C 137.359 123.968, 138.695 123.668, 139.513 122.989 C 140.331 122.311, 141 122.047, 141 122.403 C 141 123.675, 147.116 119.861, 150.132 116.708 C 154.283 112.370, 156.137 108.535, 156.721 103.076 C 157.284 97.814, 157.284 97.876, 156.633 92.302 C 154.762 76.272, 137.532 66.785, 121.594 73.009 M 215 171.906 C 215 174.292, 214.652 174.722, 213.056 174.305 C 211.805 173.977, 210.159 174.750, 208.438 176.472 C 206.186 178.723, 205.857 179.729, 206.358 182.820 C 207.113 187.472, 209.238 189.018, 214.405 188.675 L 218.500 188.403 218.786 178.701 C 219.057 169.515, 218.964 169, 217.036 169 C 215.455 169, 215 169.649, 215 171.906 M 321 178.531 C 321 186.200, 321.302 188.179, 322.543 188.655 C 323.392 188.981, 324.200 189.079, 324.339 188.874 C 324.478 188.668, 324.416 184.113, 324.200 178.750 C 323.897 171.235, 323.485 169, 322.403 169 C 321.297 169, 321 171.017, 321 178.531 M 139 171.500 C 139 172.426, 139.940 173, 141.458 173 C 143.829 173, 143.926 173.270, 144.208 180.670 C 144.399 185.697, 144.931 188.482, 145.750 188.753 C 146.681 189.061, 147 187.104, 147 181.083 C 147 173.128, 147.040 173, 149.500 173 C 151.056 173, 152 172.433, 152 171.500 C 152 170.321, 150.611 170, 145.500 170 C 140.389 170, 139 170.321, 139 171.500 M 257 179.583 C 257 186.802, 257.308 189.065, 258.250 188.756 C 258.938 188.531, 259.641 186.918, 259.813 185.173 C 260.062 182.659, 260.586 182, 262.341 182 C 265.930 182, 269 179.234, 269 176 C 269 172.328, 265.810 170, 260.777 170 L 257 170 257 179.583 M 368 179.583 C 368 186.803, 368.308 189.065, 369.250 188.755 C 369.971 188.518, 370.711 185.921, 371 182.615 L 371.500 176.885 374.818 182.942 C 379.691 191.841, 381 191.112, 381 179.500 C 381 171.722, 380.728 170, 379.500 170 C 378.328 170, 377.997 171.368, 377.985 176.250 L 377.969 182.500 374.427 176.250 C 369.273 167.158, 368 167.819, 368 179.583 M 260 175.934 C 260 178.193, 260.460 178.996, 261.750 178.985 C 266.689 178.941, 267.578 173.742, 262.741 173.184 C 260.280 172.899, 260 173.180, 260 175.934 M 155.500 175.195 C 152.692 176.787, 152.033 178.027, 152.015 181.750 C 151.998 185.390, 154.923 189, 157.889 189 C 161.426 189, 164.400 185.574, 164.400 181.500 C 164.400 178.780, 163.762 177.225, 162.089 175.871 C 159.440 173.726, 158.297 173.609, 155.500 175.195 M 187.250 175.031 C 184.097 176.298, 184.437 178.192, 187.750 177.814 C 190.788 177.467, 192.176 179.290, 189.303 179.853 C 186.965 180.311, 184 182.956, 184 184.584 C 184 187.264, 187.045 188.965, 191.302 188.663 L 195.500 188.365 195.373 182.509 C 195.207 174.888, 192.897 172.762, 187.250 175.031 M 201.750 174.716 C 199.051 175.125, 199 175.263, 199 182.150 C 199 187.316, 199.330 189.058, 200.250 188.756 C 200.938 188.530, 201.643 186.363, 201.819 183.942 C 202.141 179.498, 203.569 176.616, 205.009 177.505 C 205.959 178.093, 207.106 175.439, 206.264 174.598 C 205.936 174.269, 205.404 174.067, 205.083 174.150 C 204.762 174.232, 203.262 174.487, 201.750 174.716 M 222.750 175.080 C 221.787 175.641, 221 177.241, 221 178.637 C 221 180.537, 221.752 181.458, 224 182.306 C 228.047 183.834, 228.077 186.465, 224.039 185.658 C 220.520 184.954, 219.120 186.459, 221.906 187.950 C 224.817 189.508, 227.483 189.229, 229.345 187.171 C 231.782 184.479, 231.398 183.168, 227.501 180.868 C 223.697 178.624, 223.765 176.473, 227.609 177.438 C 229.279 177.857, 230 177.615, 230 176.636 C 230 175.864, 228.988 174.962, 227.750 174.630 C 224.882 173.862, 224.835 173.866, 222.750 175.080 M 240.250 175.031 C 237.097 176.298, 237.437 178.192, 240.750 177.814 C 243.788 177.467, 245.176 179.290, 242.303 179.853 C 239.965 180.311, 237 182.956, 237 184.584 C 237 187.264, 240.045 188.965, 244.302 188.663 L 248.500 188.365 248.373 182.509 C 248.207 174.888, 245.897 172.762, 240.250 175.031 M 272.750 175.080 C 269.902 176.739, 270.672 178.231, 274 177.500 C 278.241 176.568, 278.018 179.287, 273.750 180.543 C 271.481 181.211, 270.401 182.196, 270.173 183.805 C 269.655 187.460, 271.673 189.025, 276.362 188.607 L 280.500 188.238 280.797 182.709 C 281.055 177.910, 280.795 176.970, 278.825 175.590 C 276.206 173.756, 275.173 173.669, 272.750 175.080 M 286.750 174.716 L 284 175.133 284 184.566 C 284 192.285, 284.273 194, 285.500 194 C 286.484 194, 287 193.015, 287 191.139 C 287 188.672, 287.325 188.340, 289.357 188.728 C 292.340 189.298, 296 184.966, 296 180.865 C 296 177.866, 292.894 173.893, 290.750 174.150 C 290.063 174.232, 288.262 174.487, 286.750 174.716 M 299.455 176.455 C 298.105 177.805, 297 180.075, 297 181.500 C 297 184.299, 300.994 189, 303.373 189 C 305.867 189, 308 187.846, 308 186.496 C 308 185.684, 306.833 185.260, 304.857 185.353 C 303.124 185.434, 301.516 184.939, 301.273 184.250 C 300.968 183.382, 302.082 183, 304.917 183 C 308.606 183, 309 182.759, 309 180.500 C 309 177.713, 305.833 174, 303.455 174 C 302.605 174, 300.805 175.105, 299.455 176.455 M 315.558 174.906 C 315.250 175.404, 314.077 175.571, 312.950 175.277 C 311.015 174.771, 310.919 175.114, 311.201 181.541 C 311.391 185.866, 311.955 188.491, 312.750 188.754 C 313.626 189.043, 314 187.818, 314 184.655 C 314 180.340, 315.393 177.702, 318.159 176.780 C 318.816 176.561, 319.023 175.846, 318.618 175.191 C 317.743 173.776, 316.338 173.645, 315.558 174.906 M 328.455 176.455 C 327.105 177.805, 326 180.075, 326 181.500 C 326 184.299, 329.994 189, 332.373 189 C 334.867 189, 337 187.846, 337 186.496 C 337 185.684, 335.833 185.260, 333.857 185.353 C 332.124 185.434, 330.516 184.939, 330.273 184.250 C 329.968 183.382, 331.082 183, 333.917 183 C 337.606 183, 338 182.759, 338 180.500 C 338 177.713, 334.833 174, 332.455 174 C 331.605 174, 329.805 175.105, 328.455 176.455 M 341 176 C 338.229 178.771, 338.470 179.755, 342.500 182.133 C 344.425 183.268, 346 184.653, 346 185.210 C 346 185.826, 344.628 185.965, 342.500 185.566 C 338.365 184.790, 337.725 186.462, 341.500 188.182 C 345.123 189.833, 349 187.895, 349 184.435 C 349 182.455, 348.277 181.553, 346 180.694 C 342.299 179.297, 341.821 176.487, 345.439 177.395 C 348.508 178.166, 349.717 176.454, 347.094 175.050 C 344.317 173.564, 343.274 173.726, 341 176 M 352 176 C 349.229 178.771, 349.470 179.755, 353.500 182.133 C 355.425 183.268, 357 184.653, 357 185.210 C 357 185.826, 355.628 185.965, 353.500 185.566 C 349.365 184.790, 348.725 186.462, 352.500 188.182 C 356.123 189.833, 360 187.895, 360 184.435 C 360 182.455, 359.277 181.553, 357 180.694 C 353.299 179.297, 352.821 176.487, 356.439 177.395 C 359.508 178.166, 360.717 176.454, 358.094 175.050 C 355.317 173.564, 354.274 173.726, 352 176 M 386.750 175.080 C 383.902 176.739, 384.672 178.231, 388 177.500 C 392.241 176.568, 392.018 179.287, 387.750 180.543 C 385.481 181.211, 384.401 182.196, 384.173 183.805 C 383.655 187.460, 385.673 189.025, 390.362 188.607 L 394.500 188.238 394.797 182.709 C 395.055 177.910, 394.795 176.970, 392.825 175.590 C 390.206 173.756, 389.173 173.669, 386.750 175.080 M 165.035 175.250 C 165.054 175.387, 165.888 178.425, 166.887 182 C 168.286 187.003, 169.130 188.500, 170.554 188.500 C 171.917 188.500, 172.694 187.316, 173.504 184 L 174.603 179.500 175.556 184 C 176.279 187.413, 176.966 188.500, 178.402 188.500 C 179.883 188.500, 180.683 187.086, 182.073 182.008 C 183.050 178.438, 183.678 175.345, 183.468 175.135 C 182.255 173.922, 180.007 176.424, 179.368 179.697 L 178.625 183.500 177.472 179.500 C 176.671 176.721, 175.764 175.500, 174.500 175.500 C 173.238 175.500, 172.323 176.727, 171.513 179.500 L 170.346 183.500 169.585 179.250 C 169.003 175.997, 168.376 175, 166.912 175 C 165.860 175, 165.016 175.113, 165.035 175.250 M 396.208 176.149 C 396.484 176.892, 397.484 179.857, 398.431 182.738 C 399.378 185.619, 400.612 188.260, 401.172 188.607 C 402.766 189.591, 404.607 186.987, 406.541 181.012 L 408.319 175.525 410.230 180.012 C 413.402 187.460, 413.620 190.025, 411.137 190.675 C 409.961 190.982, 409 191.856, 409 192.617 C 409 194.575, 412.403 194.335, 414.189 192.250 C 415.941 190.206, 421.288 175.955, 420.573 175.239 C 419.398 174.064, 417.132 176.121, 416.517 178.921 C 415.530 183.417, 414.462 183.431, 412.989 178.967 C 411.814 175.407, 411.340 175, 408.370 175 C 405.286 175, 404.967 175.322, 403.685 179.716 L 402.310 184.431 400.822 179.966 C 399.902 177.203, 398.643 175.366, 397.521 175.149 C 396.333 174.918, 395.881 175.263, 396.208 176.149 M 156.200 178.200 C 153.407 180.993, 156.045 186.964, 159.487 185.643 C 162.173 184.613, 160.863 177, 158 177 C 157.670 177, 156.860 177.540, 156.200 178.200 M 211.176 177.871 C 210.379 178.376, 209.981 180.063, 210.176 182.105 C 210.426 184.725, 210.956 185.500, 212.500 185.500 C 214.160 185.500, 214.500 184.833, 214.500 181.583 C 214.500 177.547, 213.482 176.411, 211.176 177.871 M 288.176 177.871 C 287.379 178.376, 286.981 180.063, 287.176 182.105 C 287.426 184.725, 287.956 185.500, 289.500 185.500 C 291.160 185.500, 291.500 184.833, 291.500 181.583 C 291.500 177.547, 290.482 176.411, 288.176 177.871 M 301.701 177.632 C 300.295 179.038, 301.059 180, 303.583 180 C 305.205 180, 306.012 179.535, 305.750 178.750 C 305.269 177.304, 302.730 176.603, 301.701 177.632 M 330.701 177.632 C 329.295 179.038, 330.059 180, 332.583 180 C 334.205 180, 335.012 179.535, 334.750 178.750 C 334.269 177.304, 331.730 176.603, 330.701 177.632 M 55.250 181.749 C 69.413 181.906, 92.588 181.906, 106.750 181.749 C 120.913 181.593, 109.325 181.465, 81 181.465 C 52.675 181.465, 41.088 181.593, 55.250 181.749 M 457.750 181.749 C 471.087 181.907, 492.913 181.907, 506.250 181.749 C 519.587 181.592, 508.675 181.463, 482 181.463 C 455.325 181.463, 444.413 181.592, 457.750 181.749 M 189.250 182.662 C 188.563 182.940, 188 183.837, 188 184.657 C 188 186.728, 191.393 185.911, 191.812 183.739 C 192.149 181.987, 191.548 181.735, 189.250 182.662 M 242.250 182.662 C 241.563 182.940, 241 183.837, 241 184.657 C 241 186.728, 244.393 185.911, 244.812 183.739 C 245.149 181.987, 244.548 181.735, 242.250 182.662 M 274.250 182.662 C 273.563 182.940, 273 183.835, 273 184.653 C 273 186.774, 277.394 185.950, 277.813 183.750 C 278.139 182.042, 276.800 181.633, 274.250 182.662 M 388.250 182.662 C 387.563 182.940, 387 183.835, 387 184.653 C 387 186.774, 391.394 185.950, 391.813 183.750 C 392.139 182.042, 390.800 181.633, 388.250 182.662" stroke="none" fill="#343434" fill-rule="evenodd"/></svg>